Coordinates
version=1
nRows=26
nColumns=24
inDegrees=yes

Units are S.I. units (second, meters, Newtons, ...)
Angles are in degrees.

endheader
time	pelvis_tilt	pelvis_list	pelvis_rotation	pelvis_tx	pelvis_ty	pelvis_tz	hip_flexion_r	hip_adduction_r	hip_rotation_r	knee_angle_r	ankle_angle_r	subtalar_angle_r	mtp_angle_r	hip_flexion_l	hip_adduction_l	hip_rotation_l	knee_angle_l	ankle_angle_l	subtalar_angle_l	mtp_angle_l	lumbar_extension	lumbar_bending	lumbar_rotation
      4.86000000	    -12.41123031	      6.82523053	      4.33813859	     -1.61509720	     -0.02926957	      2.02389909	     21.36864685	    -11.82623349	    -10.62848825	    -61.88904656	     -9.32894879	     -5.88277419	    -20.07698933	     27.26755742	     10.93303218	     -4.28777299	    -21.97734002	     -0.74957787	     -5.10474662	     17.07426547	      8.42216034	     -9.24701707	     -2.86523609
      4.87000000	    -12.32633119	      6.78170362	      4.31430370	     -1.60248143	     -0.02712081	      2.02339827	     22.98287556	    -11.57284721	     -9.94630108	    -62.22307772	     -7.59408307	     -5.65362615	    -19.82858989	     25.79875389	     10.89751485	     -4.21209324	    -21.08416026	     -0.20025681	     -4.87056660	     16.96826080	      8.25727756	     -9.14595615	     -3.13475135
      4.88000000	    -12.14355952	      6.64088065	      4.26662394	     -1.59003015	     -0.02493300	      2.02291307	     24.41954522	    -11.16729210	     -9.30988627	    -62.22167663	     -5.64269572	     -5.25085032	    -21.12734367	     24.25534773	     10.77602418	     -4.01257294	    -20.26251735	      0.59864624	     -4.59844159	     15.23466501	      7.96973219	     -8.92518810	     -3.38377307
      4.89000000	    -12.07429204	      6.43230654	      4.27641472	     -1.57767754	     -0.02299733	      2.02236781	     25.88636191	    -10.71583505	     -8.81785439	    -61.88780264	     -4.01345231	     -4.95818142	    -21.10435936	     22.84959162	     10.61049705	     -3.74130308	    -19.38469664	      0.98325811	     -4.56973355	     15.15280017	      7.79741852	     -8.65215834	     -3.72015891
      4.90000000	    -11.92549769	      6.08472909	      4.35250593	     -1.56540628	     -0.02108217	      2.02171297	     27.13802479	    -10.14890360	     -8.51152789	    -61.23567753	     -1.92998030	     -4.53193506	    -24.72546718	     21.41973570	     10.32997097	     -3.34125528	    -18.64879725	      1.70260253	     -4.39954131	     13.62108933	      7.53181801	     -8.22780732	     -4.05790838
      4.91000000	    -11.75387727	      5.68234949	      4.50602115	     -1.55328846	     -0.01925742	      2.02095395	     28.24127070	     -9.60816003	     -8.46568400	    -60.21369147	     -0.65359089	     -4.48509728	    -24.96381425	     19.98672007	     10.01409296	     -2.86239250	    -17.86188714	      1.98758353	     -4.51987589	     13.58502201	      7.21137416	     -7.75311746	     -4.50753386
      4.92000000	    -11.64547434	      5.26442394	      4.64950867	     -1.54123556	     -0.01775075	      2.02020971	     29.36362735	     -9.06788995	     -8.43332349	    -59.01446408	      1.13536709	     -4.26530455	    -29.39939248	     18.67342906	      9.67195290	     -2.40167597	    -17.18338316	      2.56734257	     -4.51185914	     12.45675634	      6.96552522	     -7.25710471	     -4.84795160
      4.93000000	    -11.55285694	      4.78774116	      4.89170164	     -1.52927646	     -0.01640547	      2.01936961	     30.37708909	     -8.57203064	     -8.70701154	    -57.47084117	      1.91591748	     -4.54207776	    -29.55956842	     17.39462860	      9.28722439	     -1.85932927	    -16.47503835	      2.88129134	     -4.66927926	     12.40251344	      6.71958723	     -6.71283662	     -5.28799325
      4.94000000	    -11.29767996	      4.34637892	      5.16014317	     -1.51732871	     -0.01512520	      2.01847493	     31.10776958	     -8.16408015	     -9.07118508	    -55.71504291	      2.80461390	     -4.61740952	    -30.37382800	     15.93764671	      8.92322256	     -1.29285126	    -15.76937471	      3.29566411	     -4.77328526	     12.00678116	      6.29349457	     -6.18375071	     -5.72502599
      4.95000000	    -11.27893420	      3.89298274	      5.41477152	     -1.50548487	     -0.01432865	      2.01769110	     32.05801886	     -7.74412295	     -9.40283229	    -53.79850752	      3.89573337	     -4.67788039	    -33.86583993	     14.80895378	      8.53581034	     -0.81222071	    -15.19365082	      3.95357961	     -4.74120972	     10.44442771	      6.12582409	     -5.66163410	     -6.08830249
      4.96000000	    -11.23499301	      3.44434515	      5.69994782	     -1.49368476	     -0.01371254	      2.01691496	     32.87012684	     -7.37956683	     -9.86427321	    -51.63532404	      4.38060406	     -4.80879754	    -34.05199482	     13.65292229	      8.13535092	     -0.35540557	    -14.55254661	      4.29924793	     -4.84838460	     10.42400828	      5.92753153	     -5.14374028	     -6.49179403
      4.97000000	    -11.10706085	      3.04235069	      5.93910943	     -1.48185349	     -0.01320916	      2.01625687	     33.49937731	     -7.04581992	    -10.27982176	    -49.29310650	      4.90828425	     -4.65679054	    -34.57187988	     12.38090662	      7.74195591	      0.07644714	    -13.87371717	      4.71191528	     -4.86644716	     10.20196447	      5.64755024	     -4.65989210	     -6.79045586
      4.98000000	    -11.16911540	      2.65013261	      6.14685673	     -1.47008682	     -0.01310635	      2.01575781	     34.27380226	     -6.71639052	    -10.67447671	    -46.78187755	      5.25515143	     -4.48066407	    -34.97005652	     11.34321458	      7.34458909	      0.39372598	    -13.22233909	      5.09319713	     -4.87803816	     10.01870706	      5.57366418	     -4.20544369	     -7.05318143
      4.99000000	    -11.12794024	      2.37233784	      6.26296624	     -1.45823989	     -0.01316119	      2.01537440	     34.87094978	     -6.47931032	    -10.95587251	    -44.20891510	      6.27190670	     -3.63795490	    -38.43266745	     10.15685539	      7.02875394	      0.61564916	    -12.57585625	      5.79236795	     -4.69539596	      8.40193576	      5.39336317	     -3.84223116	     -7.20155192
      5.00000000	    -11.14294897	      2.09516874	      6.36476907	     -1.44640025	     -0.01341681	      2.01515849	     35.44429435	     -6.24833197	    -11.34478601	    -41.45853248	      6.65064814	     -2.80922678	    -38.60831767	      9.02773804	      6.68173669	      0.71831128	    -11.86593013	      6.15788115	     -4.56948815	      8.42322966	      5.27265297	     -3.49546808	     -7.36262100
      5.01000000	    -11.16080794	      1.85928779	      6.39721640	     -1.43451820	     -0.01386703	      2.01505348	     35.96885213	     -6.05552012	    -11.78613546	    -38.64552810	      7.05105690	     -1.61838062	    -38.87880010	      7.89529914	      6.35002722	      0.64416305	    -11.15318067	      6.58703664	     -4.30501022	      8.39861802	      5.15993178	     -3.17535865	     -7.45204907
      5.02000000	    -11.19326063	      1.65415840	      6.35591873	     -1.42261493	     -0.01448859	      2.01513366	     36.44858119	     -5.85452825	    -12.22160785	    -35.77338673	      7.53003813	     -0.07965626	    -39.17982848	      6.80722009	      6.02746238	      0.38881237	    -10.49750652	      7.02812917	     -3.93692931	      8.36301630	      5.05987360	     -2.88135161	     -7.44842395
      5.03000000	    -11.13360729	      1.36694332	      6.21834436	     -1.41059127	     -0.01508525	      2.01543986	     36.72417916	     -5.47722047	    -12.65364012	    -32.77248833	      8.05657761	      1.59961088	    -39.81524976	      5.63587223	      5.58432024	     -0.01546261	     -9.87147888	      7.54212492	     -3.48392456	      8.24339053	      4.88353963	     -2.48230649	     -7.32635990
      5.04000000	    -11.15862105	      1.12720404	      6.03762748	     -1.39863076	     -0.01591815	      2.01584431	     37.03894377	     -5.13382680	    -13.08247160	    -29.79483402	      8.69797114	      3.56434277	    -40.37895565	      4.60613724	      5.20661901	     -0.61116262	     -9.33694329	      8.04601291	     -2.97344174	      8.10834556	      4.78010964	     -2.13054935	     -7.17307064
      5.05000000	    -11.20376666	      0.90525745	      5.78090151	     -1.38668532	     -0.01689318	      2.01643581	     37.30204439	     -4.72874873	    -13.41585306	    -26.80437828	      9.35639785	      5.53207643	    -40.79995994	      3.64055080	      4.85537348	     -1.34715123	     -8.88684303	      8.52361091	     -2.48760838	      7.95412564	      4.68743665	     -1.79032437	     -6.93293454
      5.06000000	    -11.23797832	      0.70985056	      5.48778495	     -1.37464658	     -0.01799696	      2.01720788	     37.45028401	     -4.28135739	    -13.63312729	    -23.78459098	      9.93298884	      7.36582288	    -41.04526400	      2.70806505	      4.53458596	     -2.16694351	     -8.54907846	      8.98143243	     -2.00525905	      7.79663233	      4.59035958	     -1.48096036	     -6.65314276
      5.07000000	    -11.18971480	      0.53391574	      5.20658892	     -1.36239908	     -0.01917539	      2.01814270	     37.36010802	     -3.79811686	    -13.72990818	    -20.68343718	     10.31479912	      8.92384493	    -41.11252047	      1.72921413	      4.22050533	     -3.01315481	     -8.33384148	      9.44291966	     -1.46631772	      7.66201269	      4.42272397	     -1.20075493	     -6.38723604
      5.08000000	    -11.00353202	      0.37595389	      4.98920733	     -1.34974642	     -0.02040965	      2.01921281	     36.93311831	     -3.30453342	    -13.69931114	    -17.48746109	     10.44375505	     10.13867001	    -41.01562384	      0.63341725	      3.89435514	     -3.81201803	     -8.24427330	      9.89697459	     -0.83067656	      7.56639193	      4.15833970	     -0.95810095	     -6.19044846
      5.09000000	    -10.71103039	      0.22495191	      4.84641548	     -1.33676392	     -0.02168453	      2.02040155	     36.25210225	     -2.82746663	    -13.61353760	    -14.32740110	     10.36893837	     11.04001889	    -40.84093571	     -0.50943348	      3.53357435	     -4.57294602	     -8.33347823	     10.35247906	     -0.03085987	      7.58270588	      3.82014813	     -0.74683831	     -6.03754259
      5.10000000	    -10.32370828	     -0.03112270	      4.80799675	     -1.32352904	     -0.02288132	      2.02160037	     35.38360839	     -2.29084526	    -13.46201015	    -11.35900985	     10.17176012	     11.48732366	    -40.61878527	     -1.66481777	      3.02047529	     -5.17023712	     -8.60511619	     10.79657181	      0.78852314	      7.62640869	      3.41523594	     -0.44147243	     -6.05912993
      5.11000000	     -9.90820610	     -0.33194553	      4.77067395	     -1.31017339	     -0.02403384	      2.02282585	     34.54405401	     -1.75753154	    -13.42057337	     -8.90108582	     10.05058622	     11.82527198	    -40.31346708	     -2.75824088	      2.42968049	     -5.72088266	     -9.06076587	     11.18981285	      1.63015214	      7.65960764	      3.00427417	     -0.07851856	     -6.13433074
